<svg width="31" height="22" fill="none" xmlns="http://www.w3.org/2000/svg"><g clip-path="url(#a)"><path d="m30.3 7-3.5.2-3.2-4.9c-.1-.2-.4-.3-.6-.3-.2 0-.5.1-.6.3l-3.2 4.9h-3.5c-.4 0-.7.3-.7.7v.2l1.9 6.8c.2.7.7 1.1 1.4 1.1h9.4c.7 0 1.2-.4 1.4-1.1L31 8v-.2c0-.4-.3-.8-.7-.8ZM23 3.9l2.2 3.2h-4.3L23 3.9Z" fill="#000"/></g><circle cx="10.5" cy="11" r="10.5" fill="#fff"/><path d="M7.4 15.5h-.2l-.1-.3v-.8l.3-.3 3-3c.5-.3.8-.7 1.1-1 .3-.3.5-.5.6-.8l.2-.8c0-.5-.2-1-.5-1.3-.3-.3-.7-.5-1.3-.5-.6 0-1 .2-1.3.6-.3.3-.5.7-.6 1.2 0 .1 0 .2-.2.3H7.5c-.2 0-.3 0-.3-.2 0-.5.2-1 .4-1.4a3 3 0 0 1 1-1.2c.6-.3 1.2-.5 2-.5.6 0 1.2.2 1.7.5.5.2.8.6 1 1a3.1 3.1 0 0 1 0 3l-1.4 1.6-2.7 2.7h4.4c.2 0 .3 0 .3.3v.6c0 .2-.1.3-.3.3H7.4Z" fill="#000"/><defs><clipPath id="a"><path fill="#fff" transform="translate(15 2)" d="M0 0h16v14H0z"/></clipPath></defs></svg>